# xmcd CD database file
#
# Track frame offsets:
#	150
#	10177
#	21235
#	33165
#	45862
#	59527
#	72810
#	84960
#	100125
#	113475
#	126245
#	146675
#
# Disc length: 2181 seconds
#
# Revision: 4
# Processed by: cddbd v1.5.2PL0 Copyright (c) Steve Scherf et al.
# Submitted via: CDex 1.51
#
DISCID=9008830c
DTITLE=Conway Twitty - Millennium Collection
DYEAR=1999
DGENRE=Country
TTITLE0=It's Only Make Believe
TTITLE1=Hello Darlin'
TTITLE2=After The Fire Is Gone
TTITLE3=I Can't Stop Loving You
TTITLE4=You've Never Been This Far Before
TTITLE5=There's A Honkey Tonk Angel
TTITLE6=Linda On My Mind
TTITLE7=Touch The Hand
TTITLE8=After All The Good Is Gone
TTITLE9=Tight Fittin' Jeans
TTITLE10=Rest Your Love On Me
TTITLE11=Crazy In Love
EXTD=YEAR: 1999
EXTT0=
EXTT1=
EXTT2=
EXTT3=
EXTT4=
EXTT5=
EXTT6=
EXTT7=
EXTT8=
EXTT9=
EXTT10=
EXTT11=
PLAYORDER=
